<svg id="Layer_1" data-name="Layer 1" xmlns="http://www.w3.org/2000/svg" viewBox="0 0 1366 500"><defs><style>.cls-1{fill:#282828;}.cls-2,.cls-3{fill:none;stroke:#282828;stroke-width:5px;}.cls-2{stroke-miterlimit:10;}.cls-3{stroke-linecap:round;stroke-linejoin:round;}</style></defs><title>Artboard 1cloud</title><g id="Layer_2" data-name="Layer 2"><g id="Layer_1-2" data-name="Layer 1-2"><path class="cls-1" d="M1275.9,269a13.52,13.52,0,0,1-13.51,13.51h-31.33A10,10,0,0,0,1221,294.77a9.77,9.77,0,0,0,4.74,6.41,10.25,10.25,0,0,0,5.34,1.32h16.33a13.5,13.5,0,1,1,0,27h-131a13.5,13.5,0,0,1,0-27h57.22a10,10,0,0,0,10.08-12.27,9.73,9.73,0,0,0-4.75-6.41,10.19,10.19,0,0,0-5.33-1.32h-123.6a13.5,13.5,0,0,1-.73-27h94.36a10,10,0,0,0,.52-20h-44.38a13.5,13.5,0,1,1-.73-27h130.19a13.51,13.51,0,0,1,0,27h-28.77a10,10,0,0,0,.52,20h61.37A13.51,13.51,0,0,1,1275.9,269Z"/><path class="cls-1" d="M330.1,402a13.51,13.51,0,0,1-13.52,13.54H104.05a13.51,13.51,0,1,1-.74-27h94a10,10,0,0,0,0-20H153.44a13.5,13.5,0,0,1-.73-27H282.92a13.5,13.5,0,0,1,.73,27h-29a10,10,0,0,0-.63,20h62.32A13.59,13.59,0,0,1,330.1,402Z"/><path class="cls-1" d="M405.1,150a14.52,14.52,0,0,1-14.52,14.55H246.43a14.5,14.5,0,0,1,0-29h8a10.75,10.75,0,0,0,10.88-10.33,10.5,10.5,0,0,0-10.5-10.67h-46.9A14.81,14.81,0,0,1,193,100.65,14.5,14.5,0,0,1,207.47,85.5H346.18c7.83,0,14.59,6,14.94,13.84a14.51,14.51,0,0,1-14.49,15.16H316a10.5,10.5,0,0,0,0,21h74.57A14.49,14.49,0,0,1,405.1,150Z"/><path class="cls-1" d="M460.29,85.5h19.78a14.5,14.5,0,0,1,14.5,14.5h0a14.5,14.5,0,0,1-14.5,14.5H460.29a14.5,14.5,0,0,1-14.5-14.5h0A14.5,14.5,0,0,1,460.29,85.5Z"/><path class="cls-1" d="M394,85.5h19.78a14.5,14.5,0,0,1,14.5,14.5h0a14.5,14.5,0,0,1-14.5,14.5H394a14.5,14.5,0,0,1-14.5-14.5h0A14.5,14.5,0,0,1,394,85.5Z"/><circle class="cls-2" cx="431.52" cy="254.74" r="7"/><circle class="cls-2" cx="990.06" cy="215.09" r="7"/><line class="cls-3" x1="283.6" y1="216" x2="297.6" y2="216"/><line class="cls-3" x1="290.6" y1="209" x2="290.6" y2="223"/><line class="cls-3" x1="1165.6" y1="94" x2="1179.6" y2="94"/><line class="cls-3" x1="1172.6" y1="87" x2="1172.6" y2="101"/></g></g></svg>