<svg xmlns="http://www.w3.org/2000/svg" viewBox="0 0 1186.02 331.63"><defs><style>.cls-1{fill:#282828;}.cls-2,.cls-3{fill:none;stroke:#282828;stroke-width:5px;}.cls-2{stroke-miterlimit:10;}.cls-3{stroke-linecap:round;stroke-linejoin:round;}</style></defs><title>Asset 8cloud</title><g id="Layer_2" data-name="Layer 2"><g id="Layer_1-2" data-name="Layer 1"><path class="cls-1" d="M1186,184.57a13.69,13.69,0,0,1-13.68,13.68H1141a9.86,9.86,0,1,0,0,19.71h17.25a13.68,13.68,0,1,1,0,27.35H1025.59a13.68,13.68,0,0,1,0-27.35h58.15a9.86,9.86,0,1,0,0-19.71H960.16a13.68,13.68,0,1,1,0-27.35h93.61a9.86,9.86,0,0,0,.51-19.71H1009a13.68,13.68,0,1,1,0-27.35h131.14a13.68,13.68,0,0,1,0,27.35h-29.68a9.86,9.86,0,0,0,.51,19.71h61.36A13.68,13.68,0,0,1,1186,184.57Z"/><path class="cls-1" d="M239.73,317.94A13.69,13.69,0,0,1,226,331.63H13.68a13.69,13.69,0,1,1,0-27.37h93.69a9.87,9.87,0,0,0,0-19.73H62.57a13.69,13.69,0,1,1,0-27.37H193.82a13.69,13.69,0,1,1,0,27.37H164.63a9.87,9.87,0,1,0,0,19.73H226A13.69,13.69,0,0,1,239.73,317.94Z"/><path class="cls-1" d="M315,65.85A14.65,14.65,0,0,1,300.35,80.5H154.74a14.65,14.65,0,0,1,0-29.29h10.07a10.56,10.56,0,0,0,0-21.12h-48a14.64,14.64,0,0,1,0-29.28H257.32a14.64,14.64,0,1,1,0,29.28H226.05a10.56,10.56,0,0,0,0,21.12h74.27A14.64,14.64,0,0,1,315,65.85Z"/><rect class="cls-1" x="355.52" y="0.81" width="49.35" height="29.34" rx="14.67" ry="14.67"/><rect class="cls-1" x="289.2" y="0.81" width="49.35" height="29.34" rx="14.67" ry="14.67"/><circle class="cls-2" cx="341.54" cy="170.49" r="7"/><circle class="cls-2" cx="900.08" cy="130.84" r="7"/><line class="cls-3" x1="193.51" y1="131.92" x2="207.51" y2="131.92"/><line class="cls-3" x1="200.51" y1="124.92" x2="200.51" y2="138.92"/><line class="cls-3" x1="1075.38" y1="9.5" x2="1089.38" y2="9.5"/><line class="cls-3" x1="1082.38" y1="2.5" x2="1082.38" y2="16.5"/></g></g></svg>