<svg xmlns="http://www.w3.org/2000/svg" viewBox="0 0 340.33 340.33">
    <defs>
        <style>
            .cls-1,.cls-3{fill:none;}
            .cls-2{fill:#282828;}
            .cls-3{stroke:#fff;stroke-linecap:round;stroke-linejoin:round;stroke-width:2px;stroke-dasharray:11;}
            .cls-4{fill:#1e1e1e;}
            .cls-5{fill:#fff;}
            .cls-6{fill:#00e676;}
        </style>
    </defs>
    <g id="Layer_2" data-name="Layer 2">
        <g id="Layer_1-2" data-name="Layer 1">
            <circle class="cls-1" cx="170.17" cy="170.17" r="170.17"/>
            <circle class="cls-2" cx="170.17" cy="170.17" r="132.98"/>
            <polygon class="cls-3" points="170.17 36.28 54.21 237.12 286.12 237.12 170.17 36.28"/>
            <polyline class="cls-3" points="170.16 170.16 170.16 170.17 286.12 237.11"/>
            <polyline class="cls-3" points="170.16 170.16 170.16 170.17 54.21 237.11"/>
            <polyline class="cls-3" points="170.16 170.17 170.16 170.16 170.16 36.27"/>
            <circle class="cls-4" cx="56.36" cy="237.06" r="38.17"/>
            <path class="cls-5" d="M65.38,257.11H60.53v-3.47a.7.7,0,1,0-1.39,0v3.47H53.59v-3.47a.7.7,0,1,0-1.39,0v3.47H47.34a.69.69,0,0,0,0,1.38h18a.69.69,0,1,0,0-1.38Z"/>
            <path class="cls-5" d="M56.38,247.39h0a.69.69,0,0,0-.69.69.7.7,0,1,0,.69-.69Z"/>
            <path class="cls-5" d="M69.06,229.15a.7.7,0,0,0,.49.2.73.73,0,0,0,.49-.2.69.69,0,0,0,0-1l-1.39-1.39a.69.69,0,1,0-1,1Z"/>
            <path class="cls-5" d="M69.06,233.31a.7.7,0,0,0,.49.2.73.73,0,0,0,.49-.2.69.69,0,0,0,0-1l-5.55-5.55a.69.69,0,0,0-1,0,.68.68,0,0,0,0,1Z"/>
            <path class="cls-5" d="M73.71,219.64H39a3.64,3.64,0,0,0-3.47,3.46v25A3.65,3.65,0,0,0,39,251.55H73.71a3.65,3.65,0,0,0,3.47-3.47v-25A3.65,3.65,0,0,0,73.71,219.64Zm2.08,28.44a2.29,2.29,0,0,1-2.08,2.09H39a2.29,2.29,0,0,1-2.09-2.09v-25A2.29,2.29,0,0,1,39,221H73.71a2.29,2.29,0,0,1,2.08,2.08v25Z"/>
            <path class="cls-5" d="M73.71,222.41H39a.69.69,0,0,0-.7.69v22.21a.69.69,0,0,0,.7.69H73.71a.69.69,0,0,0,.69-.69V223.1A.69.69,0,0,0,73.71,222.41ZM73,244.62H39.71V223.8H73v20.82Z"/>
            <circle class="cls-4" cx="170.92" cy="38.17" r="38.17"/>
            <path class="cls-6" d="M168.67,18.56a.76.76,0,1,0,.77.76.76.76,0,0,0-.77-.76Z"/>
            <path class="cls-6" d="M169.41,56.24a1.51,1.51,0,1,0,1.51-1.51A1.52,1.52,0,0,0,169.41,56.24Z"/>
            <path class="cls-6" d="M159.62,50.21a.76.76,0,0,0,.75-.75V19.32a2.49,2.49,0,0,1,2.26-2.27h16.58a2.49,2.49,0,0,1,2.26,2.27.76.76,0,0,0,1.51,0,4,4,0,0,0-3.77-3.77H162.63a4,4,0,0,0-3.77,3.77V49.46A.76.76,0,0,0,159.62,50.21Z"/>
            <path class="cls-6" d="M171.67,18.56a.76.76,0,0,0,0,1.51h3a.76.76,0,0,0,0-1.51Z"/>
            <path class="cls-6" d="M177.7,29.11a.71.71,0,0,0,.53-.22.74.74,0,0,0,0-1.06l-1.5-1.51a.75.75,0,0,0-1.07,1.06l1.51,1.51A.74.74,0,0,0,177.7,29.11Z"/>
            <path class="cls-6" d="M171.14,26.32a.75.75,0,0,0,0,1.06l6,6a.74.74,0,0,0,.53.22.71.71,0,0,0,.53-.22.74.74,0,0,0,0-1.06l-6-6A.75.75,0,0,0,171.14,26.32Z"/>
            <path class="cls-6" d="M182.22,21.58H162.63a.75.75,0,0,0,0,1.5h18.84V57a2.48,2.48,0,0,1-2.26,2.26H162.63A2.48,2.48,0,0,1,160.37,57V53.23h18.84a.76.76,0,0,0,0-1.51H159.62a.76.76,0,0,0-.76.75V57a4,4,0,0,0,3.77,3.77h16.58A4,4,0,0,0,183,57V22.33A.75.75,0,0,0,182.22,21.58Z"/>
            <circle class="cls-4" cx="283.99" cy="236.66" r="38.17"/>
            <path class="cls-5" d="M268.66,248.34a.73.73,0,0,0,.73-.73v-29.2a2.41,2.41,0,0,1,2.19-2.19h24.81a2.41,2.41,0,0,1,2.19,2.19.73.73,0,1,0,1.46,0,3.85,3.85,0,0,0-3.65-3.65H271.58a3.85,3.85,0,0,0-3.65,3.65v29.2A.73.73,0,0,0,268.66,248.34Z"/>
            <path class="cls-5" d="M299.31,220.6H271.58a.73.73,0,0,0,0,1.46h27v32.85a2.4,2.4,0,0,1-2.19,2.19H271.58a2.4,2.4,0,0,1-2.19-2.19v-3.65h27a.73.73,0,1,0,0-1.46H268.66a.73.73,0,0,0-.73.73v4.38a3.84,3.84,0,0,0,3.65,3.65h24.81a3.84,3.84,0,0,0,3.65-3.65V221.33A.73.73,0,0,0,299.31,220.6Z"/>
            <path class="cls-5" d="M284,217.68a.73.73,0,1,0,.74.73.73.73,0,0,0-.74-.73Z"/>
            <path class="cls-5" d="M288.58,225.2a.72.72,0,0,0,0,1l5.84,5.84a.74.74,0,0,0,1,0,.72.72,0,0,0,0-1l-5.84-5.84A.72.72,0,0,0,288.58,225.2Z"/>
            <path class="cls-5" d="M282.53,254.18a1.46,1.46,0,1,0,1.46-1.46A1.46,1.46,0,0,0,282.53,254.18Z"/>
            <path class="cls-5" d="M294.93,227.9a.73.73,0,0,0,.52-.21.72.72,0,0,0,0-1L294,225.2a.73.73,0,0,0-1,1l1.46,1.46A.73.73,0,0,0,294.93,227.9Z"/>
            <circle class="cls-4" cx="170.17" cy="170.17" r="50.3"/>
            <path class="cls-6" d="M178.59,150.29a19.6,19.6,0,0,0-4.18.45l-.16,0-.15,0a5.89,5.89,0,0,0-2.85,1.89,19.88,19.88,0,1,0-9.51,37.34,19.44,19.44,0,0,0,3.89-.39,3.63,3.63,0,0,0,.45-.1h0a5.89,5.89,0,0,0,3-1.92,19.88,19.88,0,1,0,9.51-37.34Zm0,35.26a15.36,15.36,0,0,1-7.69-2.06h0a15.45,15.45,0,0,1-7.69-13.32c0-.15,0-.3,0-.45a1.49,1.49,0,0,0,0-.21,1.57,1.57,0,0,0-.12-.57l0-.05a1.49,1.49,0,0,0-1.28-.86,1.46,1.46,0,0,0-1.48,1.18h0a.44.44,0,0,0,0,.1.28.28,0,0,0,0,.09v.1c0,.22,0,.44,0,.66a18.4,18.4,0,0,0,5.14,12.71h0l.21.22a1.31,1.31,0,0,1,.28.82,1.35,1.35,0,0,1-1,1.3l-.15,0a15.39,15.39,0,1,1,4.66-28.41h0a15.42,15.42,0,0,1,7.68,13.32c0,.2,0,.41,0,.61a1.46,1.46,0,0,0,2.6,1l.05-.07.07-.11a1.48,1.48,0,0,0,.21-.75,1.09,1.09,0,0,0,0-.18c0-.16,0-.31,0-.47a18.36,18.36,0,0,0-5.39-13h0a1.32,1.32,0,0,1-.25-.78,1.34,1.34,0,0,1,1-1.29,15.05,15.05,0,0,1,3.22-.35,15.39,15.39,0,1,1,0,30.77Z"/>
        </g>
    </g>
</svg>