<svg xmlns="http://www.w3.org/2000/svg" viewBox="0 0 303.96 303.14"><defs><style>.cls-1{fill:#282828;}.cls-2{fill:none;stroke:#fff;stroke-linecap:round;stroke-linejoin:round;stroke-width:2px;stroke-dasharray:11;}.cls-3{fill:#1e1e1e;}.cls-4{fill:#fff;}.cls-5{fill:#00e676;}</style></defs><title>Asset 6art</title><g id="Layer_2" data-name="Layer 2"><g id="Layer_1-2" data-name="Layer 1"><circle class="cls-1" cx="151.97" cy="170.17" r="132.98"/><polygon class="cls-2" points="151.97 36.28 36.01 237.12 267.93 237.12 151.97 36.28"/><polyline class="cls-2" points="151.97 170.16 151.97 170.17 267.93 237.11"/><polyline class="cls-2" points="151.97 170.16 151.97 170.17 36.02 237.11"/><polyline class="cls-2" points="151.97 170.17 151.97 170.16 151.97 36.27"/><circle class="cls-3" cx="38.17" cy="237.06" r="38.17"/><path class="cls-4" d="M47.19,257.11H42.33v-3.47a.7.7,0,1,0-1.39,0v3.47H35.39v-3.47a.7.7,0,1,0-1.39,0v3.47H29.15a.69.69,0,1,0,0,1.38h18a.69.69,0,1,0,0-1.38Z"/><path class="cls-4" d="M38.19,247.39h0a.7.7,0,1,0,.7.69A.69.69,0,0,0,38.18,247.39Z"/><path class="cls-4" d="M50.86,229.15a.71.71,0,0,0,.49.2.69.69,0,0,0,.49-1.18l-1.39-1.39a.69.69,0,1,0-1,1Z"/><path class="cls-4" d="M50.86,233.31a.71.71,0,0,0,.49.2.69.69,0,0,0,.49-1.18l-5.55-5.55a.69.69,0,1,0-1,1Z"/><path class="cls-4" d="M55.51,219.64H20.82a3.65,3.65,0,0,0-3.47,3.46v25a3.65,3.65,0,0,0,3.47,3.47H55.51A3.65,3.65,0,0,0,59,248.08v-25A3.64,3.64,0,0,0,55.51,219.64Zm2.09,28.44a2.29,2.29,0,0,1-2.09,2.09H20.82a2.29,2.29,0,0,1-2.08-2.09v-25A2.29,2.29,0,0,1,20.82,221H55.51a2.29,2.29,0,0,1,2.09,2.08v25Z"/><path class="cls-4" d="M55.51,222.41H20.82a.69.69,0,0,0-.69.69v22.21a.69.69,0,0,0,.69.69H55.51a.69.69,0,0,0,.7-.69V223.1A.69.69,0,0,0,55.51,222.41Zm-.69,22.21H21.51V223.8H54.82v20.82Z"/><circle class="cls-3" cx="152.72" cy="38.17" r="38.17"/><path class="cls-5" d="M150.48,18.56a.76.76,0,1,0,.76.76.75.75,0,0,0-.76-.76Z"/><path class="cls-5" d="M151.22,56.24a1.51,1.51,0,1,0,1.5-1.51A1.51,1.51,0,0,0,151.22,56.24Z"/><path class="cls-5" d="M141.42,50.21a.75.75,0,0,0,.75-.75V19.32a2.5,2.5,0,0,1,2.26-2.27H161a2.49,2.49,0,0,1,2.26,2.27.76.76,0,0,0,1.51,0A4,4,0,0,0,161,15.55H144.43a4,4,0,0,0-3.76,3.77V49.46A.75.75,0,0,0,141.42,50.21Z"/><path class="cls-5" d="M153.48,18.56a.76.76,0,1,0,0,1.51h3a.76.76,0,1,0,0-1.51Z"/><path class="cls-5" d="M159.51,29.11a.74.74,0,0,0,.53-.22.75.75,0,0,0,0-1.06l-1.51-1.51a.75.75,0,0,0-1.06,1.06l1.5,1.51A.75.75,0,0,0,159.51,29.11Z"/><path class="cls-5" d="M152.94,26.32a.75.75,0,0,0,0,1.06l6,6A.75.75,0,0,0,160,32.35l-6-6A.75.75,0,0,0,152.94,26.32Z"/><path class="cls-5" d="M164,21.58h-19.6a.75.75,0,0,0,0,1.5h18.84V57A2.48,2.48,0,0,1,161,59.25H144.43A2.49,2.49,0,0,1,142.17,57V53.23H161a.76.76,0,1,0,0-1.51H141.42a.75.75,0,0,0-.75.75V57a4,4,0,0,0,3.76,3.77H161A4,4,0,0,0,164.78,57V22.33A.75.75,0,0,0,164,21.58Z"/><circle class="cls-3" cx="265.79" cy="236.66" r="38.17"/><path class="cls-4" d="M250.46,248.34a.73.73,0,0,0,.73-.73v-29.2a2.41,2.41,0,0,1,2.19-2.19H278.2a2.41,2.41,0,0,1,2.19,2.19.73.73,0,0,0,1.46,0,3.85,3.85,0,0,0-3.65-3.65H253.38a3.85,3.85,0,0,0-3.65,3.65v29.2A.73.73,0,0,0,250.46,248.34Z"/><path class="cls-4" d="M281.12,220.6H253.38a.73.73,0,0,0,0,1.46h27v32.85a2.41,2.41,0,0,1-2.19,2.19H253.38a2.41,2.41,0,0,1-2.19-2.19v-3.65h27a.73.73,0,1,0,0-1.46H250.46a.73.73,0,0,0-.73.73v4.38a3.84,3.84,0,0,0,3.65,3.65H278.2a3.85,3.85,0,0,0,3.65-3.65V221.33A.73.73,0,0,0,281.12,220.6Z"/><path class="cls-4" d="M265.8,217.68a.73.73,0,1,0,.74.73.73.73,0,0,0-.73-.73Z"/><path class="cls-4" d="M270.38,225.2a.74.74,0,0,0,0,1l5.84,5.84a.73.73,0,0,0,.52.21.71.71,0,0,0,.51-.21.72.72,0,0,0,0-1l-5.84-5.84A.72.72,0,0,0,270.38,225.2Z"/><path class="cls-4" d="M264.33,254.18a1.46,1.46,0,1,0,1.46-1.46A1.46,1.46,0,0,0,264.33,254.18Z"/><path class="cls-4" d="M276.74,227.9a.71.71,0,0,0,.51-.21.72.72,0,0,0,0-1l-1.46-1.46a.72.72,0,0,0-1,0,.74.74,0,0,0,0,1l1.46,1.46A.73.73,0,0,0,276.74,227.9Z"/><circle class="cls-3" cx="151.97" cy="170.17" r="50.3"/><path class="cls-5" d="M160.39,150.29a19.6,19.6,0,0,0-4.18.45l-.16,0-.15,0a5.81,5.81,0,0,0-2.84,1.89,19.88,19.88,0,1,0-9.51,37.34,19.42,19.42,0,0,0,3.88-.39,3.63,3.63,0,0,0,.45-.1h.06a5.86,5.86,0,0,0,2.94-1.92,19.88,19.88,0,1,0,9.51-37.34Zm0,35.26a15.36,15.36,0,0,1-7.69-2.06h0A15.44,15.44,0,0,1,145,170.17v-.45a1.49,1.49,0,0,0,0-.21,1.39,1.39,0,0,0-.12-.57s0,0,0-.05a1.46,1.46,0,0,0-2.76.32h0s0,.07,0,.1,0,.06,0,.09v.1c0,.22,0,.44,0,.66a18.35,18.35,0,0,0,5.14,12.71h0l.21.22a1.31,1.31,0,0,1,.28.82,1.34,1.34,0,0,1-1,1.3l-.16,0a15.39,15.39,0,1,1,4.66-28.41h0a15.42,15.42,0,0,1,7.68,13.32c0,.2,0,.41,0,.61a1.46,1.46,0,0,0,1.4,1.52,1.44,1.44,0,0,0,1.2-.55l0-.07a.41.41,0,0,0,.07-.11,1.4,1.4,0,0,0,.22-.75c0-.06,0-.12,0-.18v-.47a18.39,18.39,0,0,0-5.38-13h0a1.32,1.32,0,0,1-.25-.78,1.35,1.35,0,0,1,1-1.29,15.19,15.19,0,0,1,3.22-.35,15.39,15.39,0,1,1,0,30.77Z"/></g></g></svg>