<svg xmlns="http://www.w3.org/2000/svg" viewBox="0 0 404.88 330.82"><defs><style>.cls-1{fill:#282828;}.cls-2,.cls-3{fill:none;stroke:#282828;stroke-width:5px;}.cls-2{stroke-miterlimit:10;}.cls-3{stroke-linecap:round;stroke-linejoin:round;}</style></defs><title>Asset 5right-cloud</title><g id="Layer_2" data-name="Layer 2"><g id="Layer_1-2" data-name="Layer 1"><path class="cls-1" d="M239.74,317.13a13.69,13.69,0,0,1-13.69,13.69H13.69a13.69,13.69,0,1,1,0-27.37h93.69a9.87,9.87,0,0,0,0-19.73H62.58a13.69,13.69,0,1,1,0-27.37H193.83a13.69,13.69,0,1,1,0,27.37H164.64a9.87,9.87,0,1,0,0,19.73h61.41A13.68,13.68,0,0,1,239.74,317.13Z"/><path class="cls-1" d="M315,65a14.64,14.64,0,0,1-14.65,14.65H154.75a14.65,14.65,0,1,1,0-29.29h10.07a10.56,10.56,0,0,0,0-21.12h-48a14.64,14.64,0,0,1,0-29.28H257.33a14.64,14.64,0,1,1,0,29.28H226.06a10.56,10.56,0,0,0,0,21.12h74.27A14.65,14.65,0,0,1,315,65Z"/><rect class="cls-1" x="355.53" width="49.35" height="29.34" rx="14.67" ry="14.67"/><rect class="cls-1" x="289.2" width="49.35" height="29.34" rx="14.67" ry="14.67"/><circle class="cls-2" cx="341.55" cy="169.68" r="7"/><line class="cls-3" x1="193.52" y1="131.11" x2="207.52" y2="131.11"/><line class="cls-3" x1="200.52" y1="124.11" x2="200.52" y2="138.11"/></g></g></svg>