<svg xmlns="http://www.w3.org/2000/svg" viewBox="0 0 207.78 64">
    <defs>
        <style>.cls-1{fill: var(--accent);}.cls-2{fill:#f2f2f2;}</style>
    </defs>
    <title>01Asset 1logo-type</title>
    <g id="Layer_2" data-name="Layer 2">
        <g id="Layer_1-2" data-name="Layer 1">
            <path class="cls-1" d="M59.12,0a31.91,31.91,0,0,0-6.74.73l-.25.06-.24.07a9.38,9.38,0,0,0-4.58,3A32,32,0,1,0,32,64a32.62,32.62,0,0,0,6.25-.61l.72-.17.1,0a9.41,9.41,0,0,0,4.74-3.09A32,32,0,1,0,59.12,0Zm0,56.77a24.78,24.78,0,0,1-12.39-3.32h0A24.85,24.85,0,0,1,34.35,32c0-.24,0-.48,0-.72a1.87,1.87,0,0,0,0-.34A2.32,2.32,0,0,0,34.2,30l0-.08a2.35,2.35,0,0,0-4.45.52h0a1.1,1.1,0,0,0,0,.16c0,.05,0,.09,0,.14v0a.49.49,0,0,0,0,.12c0,.36,0,.71,0,1.06a29.54,29.54,0,0,0,8.28,20.46h0l.34.35a2.11,2.11,0,0,1,.45,1.32,2.18,2.18,0,0,1-1.58,2.09l-.25.05a24.21,24.21,0,0,1-4.89.49A24.77,24.77,0,1,1,44.38,10.55h0A24.85,24.85,0,0,1,56.77,32c0,.33,0,.66,0,1a2.34,2.34,0,0,0,4.18,1.56l.08-.11a.66.66,0,0,0,.12-.17A2.34,2.34,0,0,0,61.47,33a1.23,1.23,0,0,0,0-.27c0-.26,0-.51,0-.77a29.56,29.56,0,0,0-8.68-20.87h0A2.17,2.17,0,0,1,53.93,7.8a23.79,23.79,0,0,1,5.19-.57,24.77,24.77,0,0,1,0,49.54Z"/>
            <path class="cls-2" d="M151.5,27.91a17.63,17.63,0,0,0-1.32-2.23,23.21,23.21,0,0,0-1.61-2.06,21.55,21.55,0,0,0-1.77-1.8A18.65,18.65,0,0,0,145,20.4L156.67,15l-2.12-4.7-14.73,6.56-.55,4.77c.66.54,1.31,1.09,2,1.67s1.28,1.16,1.87,1.74,1.16,1.14,1.69,1.69,1,1.08,1.39,1.57a16.22,16.22,0,0,1,1,1.37,4.14,4.14,0,0,1,.53,1.06q.09.39.15.75a4.25,4.25,0,0,1,.06.71,3.3,3.3,0,0,1-.53,1.84,2.54,2.54,0,0,1-1.23.82,10,10,0,0,1-1.92.45,19.2,19.2,0,0,1-2.2.18l-2.08,0h-1.69a3.93,3.93,0,0,1-1.29-.18,2.27,2.27,0,0,1-.86-.57,3.68,3.68,0,0,1-.62-1c-.17-.38-.37-.83-.58-1.35q-1.37-3.25-2.42-5.79t-1.8-4.4l-1.56-3.79L124,20.59c.45,1.07.93,2.18,1.44,3.34s1,2.32,1.56,3.5,1.05,2.34,1.57,3.5,1,2.29,1.45,3.36a4,4,0,0,1-.61.39,8.32,8.32,0,0,1-.83.38,4,4,0,0,1-.58.18,6.29,6.29,0,0,1-.65.11q-.33,0-.66.06c-.23,0-.42,0-.6,0a7.94,7.94,0,0,1-1.24-.1,7,7,0,0,1-1.39-.39,9.3,9.3,0,0,1-1.54-.78,10.6,10.6,0,0,1-1.67-1.29l-3.17,4.47a11.77,11.77,0,0,0,4.07,2.83,12.16,12.16,0,0,0,4.5.87,18.56,18.56,0,0,0,2.71-.18,9.92,9.92,0,0,0,3.48-1.16c.35-.19.69-.39,1-.6a7.72,7.72,0,0,0,.94.79,5.15,5.15,0,0,0,1.14.62,7,7,0,0,0,1.46.39A10.93,10.93,0,0,0,138,41h.11l5.67,0,.82,0c.28,0,.58-.07.9-.13l0,0a8,8,0,0,0,6-4,10.48,10.48,0,0,0,.82-2,9,9,0,0,0,.35-2.44,7.79,7.79,0,0,0-.31-2.26A12.94,12.94,0,0,0,151.5,27.91Z"/>
            <rect class="cls-2" x="176.86" y="17.8" width="4.04" height="4.07" transform="translate(38.37 132.3) rotate(-45)"/>
            <polygon class="cls-2" points="191.45 46.66 194.33 49.53 197.17 46.67 194.29 43.81 191.45 46.66"/>
            <polygon class="cls-2" points="184.26 46.64 187.14 49.5 189.98 46.66 187.1 43.78 184.26 46.64"/>
            <path class="cls-2" d="M207.76,31.86v-.25c0-.54,0-1.52-.08-2.93s-.11-3.18-.18-5.3c-.06-1.28-.12-2.48-.19-3.59s-.13-2.1-.2-2.95-.13-1.56-.18-2.11-.09-.93-.1-1.12l-3.44.37c0,.11.05.42.1.94s.11,1.2.17,2,.12,1.83.18,2.94.12,2.32.17,3.61c.08,2.09.15,3.84.21,5.24s.09,2.37.09,2.89v.46c0,1.78-.29,3-.9,3.61a3.9,3.9,0,0,1-2.82.84h-1.14a2.39,2.39,0,0,1-1.45-.4,2.86,2.86,0,0,1-.87-1,4.84,4.84,0,0,1-.44-1.33,11.45,11.45,0,0,1-.15-1.37c0-.45-.07-.92-.12-1.39s-.11-.95-.18-1.41-.15-.93-.25-1.38-.19-.88-.3-1.29l-3.28.93a16.18,16.18,0,0,1,.52,2.4c.09.7.15,1.38.17,2a3.23,3.23,0,0,1-.55,2.09,3.88,3.88,0,0,1-1.62,1.29,8,8,0,0,1-2.37.65,21.38,21.38,0,0,1-2.83.18h-1.35a2.34,2.34,0,0,1-1.32-.39,2.86,2.86,0,0,1-.87-1,4.53,4.53,0,0,1-.44-1.33c-.08-.48-.14-.93-.17-1.37-.05-.62-.1-1.17-.14-1.66s-.11-.95-.17-1.37-.14-.82-.22-1.2-.18-.78-.3-1.19l-3.3.93c.13.45.24.86.33,1.26s.16.76.21,1.12.09.7.11,1,0,.67,0,1a3.78,3.78,0,0,1-1.33,3.14,6.88,6.88,0,0,1-4.28,1.06H155a12.81,12.81,0,0,1-.82,1.83A11.36,11.36,0,0,1,153.06,40h19.47a14.92,14.92,0,0,0,4.32-.54,6.93,6.93,0,0,0,2.87-1.63,5.67,5.67,0,0,0,.83.87,5.19,5.19,0,0,0,1,.7,5.53,5.53,0,0,0,1.32.44,7.84,7.84,0,0,0,1.34.15h1.47q1.26,0,2.58-.12a19.53,19.53,0,0,0,2.52-.39,11.57,11.57,0,0,0,2.2-.69,5.32,5.32,0,0,0,1.63-1,5.92,5.92,0,0,0,1.89,1.6,6,6,0,0,0,2.93.64h1.11a7.19,7.19,0,0,0,5.31-1.84,5.38,5.38,0,0,0,1-1.46,8,8,0,0,0,.57-1.59,9,9,0,0,0,.24-1.59c0-.52,0-1,0-1.45A1,1,0,0,1,207.76,31.86Z"/>
        </g>
    </g>
</svg>