<svg xmlns="http://www.w3.org/2000/svg" viewBox="0 0 295.44 245.3"><defs><style>.cls-1{fill:#282828;}.cls-2,.cls-3{fill:none;stroke:#282828;stroke-width:5px;}.cls-2{stroke-miterlimit:10;}.cls-3{stroke-linecap:round;stroke-linejoin:round;}</style></defs><title>Asset 4right-cloud</title><g id="Layer_2" data-name="Layer 2"><g id="Layer_1-2" data-name="Layer 1"><path class="cls-1" d="M295.44,184.57a13.69,13.69,0,0,1-13.68,13.68H250.38a9.86,9.86,0,1,0,0,19.71h17.25a13.67,13.67,0,1,1,0,27.34H135A13.67,13.67,0,1,1,135,218h58.15a9.86,9.86,0,1,0,0-19.71H69.58a13.68,13.68,0,1,1,0-27.35h93.61a9.86,9.86,0,0,0,.51-19.71H118.43a13.68,13.68,0,1,1,0-27.35H249.57a13.68,13.68,0,0,1,0,27.35H219.89a9.86,9.86,0,0,0,.51,19.71h61.36A13.67,13.67,0,0,1,295.44,184.57Z"/><circle class="cls-2" cx="9.5" cy="130.84" r="7"/><line class="cls-3" x1="184.8" y1="9.5" x2="198.8" y2="9.5"/><line class="cls-3" x1="191.8" y1="2.5" x2="191.8" y2="16.5"/></g></g></svg>